<svg width="109" height="109" viewBox="0 0 109 109" fill="none" xmlns="http://www.w3.org/2000/svg">
<g filter="url(#filter0_d_296_132)">
<g filter="url(#filter1_d_296_132)">
<circle cx="54.5" cy="50.2002" r="50" fill="#0E0E0E" fill-opacity="0.32" shape-rendering="crispEdges"/>
</g>
<circle cx="54.5" cy="50.2002" r="35" fill="url(#paint0_linear_296_132)"/>
<g clip-path="url(#clip0_296_132)" filter="url(#filter2_d_296_132)">
<path d="M41.6875 37.4502C39.9277 37.4502 38.5 38.8779 38.5 40.6377C38.5 41.6404 38.9715 42.5834 39.775 43.1877L54.225 54.0252C54.982 54.5896 56.018 54.5896 56.775 54.0252L71.225 43.1877C72.0285 42.5834 72.5 41.6404 72.5 40.6377C72.5 38.8779 71.0723 37.4502 69.3125 37.4502H41.6875ZM38.5 44.8877V58.7002C38.5 61.0443 40.4059 62.9502 42.75 62.9502H68.25C70.5941 62.9502 72.5 61.0443 72.5 58.7002V44.8877L58.05 55.7252C56.5359 56.8607 54.4641 56.8607 52.95 55.7252L38.5 44.8877Z" fill="white"/>
</g>
</g>
<defs>
<filter id="filter0_d_296_132" x="0.5" y="0.200195" width="108" height="108" filterUnits="userSpaceOnUse" color-interpolation-filters="sRGB">
<feFlood flood-opacity="0" result="BackgroundImageFix"/>
<feColorMatrix in="SourceAlpha" type="matrix" values="0 0 0 0 0 0 0 0 0 0 0 0 0 0 0 0 0 0 127 0" result="hardAlpha"/>
<feOffset dy="4"/>
<feGaussianBlur stdDeviation="2"/>
<feComposite in2="hardAlpha" operator="out"/>
<feColorMatrix type="matrix" values="0 0 0 0 0 0 0 0 0 0 0 0 0 0 0 0 0 0 0.25 0"/>
<feBlend mode="normal" in2="BackgroundImageFix" result="effect1_dropShadow_296_132"/>
<feBlend mode="normal" in="SourceGraphic" in2="effect1_dropShadow_296_132" result="shape"/>
</filter>
<filter id="filter1_d_296_132" x="0.5" y="0.200195" width="108" height="108" filterUnits="userSpaceOnUse" color-interpolation-filters="sRGB">
<feFlood flood-opacity="0" result="BackgroundImageFix"/>
<feColorMatrix in="SourceAlpha" type="matrix" values="0 0 0 0 0 0 0 0 0 0 0 0 0 0 0 0 0 0 127 0" result="hardAlpha"/>
<feOffset dy="4"/>
<feGaussianBlur stdDeviation="2"/>
<feComposite in2="hardAlpha" operator="out"/>
<feColorMatrix type="matrix" values="0 0 0 0 0 0 0 0 0 0 0 0 0 0 0 0 0 0 0.25 0"/>
<feBlend mode="normal" in2="BackgroundImageFix" result="effect1_dropShadow_296_132"/>
<feBlend mode="normal" in="SourceGraphic" in2="effect1_dropShadow_296_132" result="shape"/>
</filter>
<filter id="filter2_d_296_132" x="34.5" y="33.2002" width="42" height="42" filterUnits="userSpaceOnUse" color-interpolation-filters="sRGB">
<feFlood flood-opacity="0" result="BackgroundImageFix"/>
<feColorMatrix in="SourceAlpha" type="matrix" values="0 0 0 0 0 0 0 0 0 0 0 0 0 0 0 0 0 0 127 0" result="hardAlpha"/>
<feOffset dy="4"/>
<feGaussianBlur stdDeviation="2"/>
<feComposite in2="hardAlpha" operator="out"/>
<feColorMatrix type="matrix" values="0 0 0 0 0 0 0 0 0 0 0 0 0 0 0 0 0 0 0.25 0"/>
<feBlend mode="normal" in2="BackgroundImageFix" result="effect1_dropShadow_296_132"/>
<feBlend mode="normal" in="SourceGraphic" in2="effect1_dropShadow_296_132" result="shape"/>
</filter>
<linearGradient id="paint0_linear_296_132" x1="121" y1="45.2002" x2="19.5" y2="55.7002" gradientUnits="userSpaceOnUse">
<stop stop-color="#346E43"/>
<stop offset="1" stop-color="#122F1A"/>
</linearGradient>
<clipPath id="clip0_296_132">
<rect width="34" height="34" fill="white" transform="translate(38.5 33.2002)"/>
</clipPath>
</defs>
</svg>
