<svg width="34" height="34" viewBox="0 0 34 34" fill="none" xmlns="http://www.w3.org/2000/svg">
<path d="M3.1875 4.25C1.42773 4.25 0 5.67773 0 7.4375C0 8.44023 0.471484 9.3832 1.275 9.9875L15.725 20.825C16.482 21.3895 17.518 21.3895 18.275 20.825L32.725 9.9875C33.5285 9.3832 34 8.44023 34 7.4375C34 5.67773 32.5723 4.25 30.8125 4.25H3.1875ZM0 11.6875V25.5C0 27.8441 1.90586 29.75 4.25 29.75H29.75C32.0941 29.75 34 27.8441 34 25.5V11.6875L19.55 22.525C18.0359 23.6605 15.9641 23.6605 14.45 22.525L0 11.6875Z" fill="white"/>
</svg>
